{
    "asset" : {
        "generator" : "Khronos glTF Blender I/O v3.3.32",
        "version" : "2.0"
    },
    "scene" : 0,
    "scenes" : [
        {
            "name" : "Scene",
            "nodes" : [
                0,
                23,
                24
            ]
        }
    ],
    "nodes" : [
        {
            "mesh" : 0,
            "name" : "sleeve",
            "translation" : [
                0.004298083484172821,
                0.2812483310699463,
                0
            ]
        },
        {
            "name" : "Bone.004",
            "rotation" : [
                -0.12062642723321915,
                0.007033254485577345,
                0.016458667814731598,
                0.9925366640090942
            ],
            "scale" : [
                1,
                1.0000001192092896,
                1.0000001192092896
            ],
            "translation" : [
                -3.91155481338501e-08,
                0.2195291370153427,
                -2.60770320892334e-08
            ]
        },
        {
            "children" : [
                1
            ],
            "name" : "Bone.003",
            "rotation" : [
                -0.05696887895464897,
                0.03467535600066185,
                -0.23544253408908844,
                0.969597339630127
            ],
            "scale" : [
                1,
                0.9999998807907104,
                0.9999998211860657
            ],
            "translation" : [
                4.0978193283081055e-08,
                0.30537793040275574,
                -1.043081283569336e-07
            ]
        },
        {
            "children" : [
                2
            ],
            "name" : "Bone.002",
            "rotation" : [
                -0.03384516015648842,
                -0.04193354770541191,
                -0.5318180918693542,
                0.8451423645019531
            ],
            "scale" : [
                0.9999999403953552,
                1,
                1
            ],
            "translation" : [
                2.60770320892334e-08,
                0.5667985081672668,
                1.4901161193847656e-08
            ]
        },
        {
            "children" : [
                3
            ],
            "name" : "Bone.001",
            "rotation" : [
                0.26267632842063904,
                0.013045702129602432,
                0.6792653799057007,
                0.6851493716239929
            ],
            "scale" : [
                0.9999999403953552,
                1,
                1
            ],
            "translation" : [
                -7.585185812786222e-10,
                0.9910675287246704,
                -2.9293005354702473e-08
            ]
        },
        {
            "name" : "Bone.008",
            "rotation" : [
                0.3873237669467926,
                0.003913146443665028,
                -0.06376174092292786,
                0.9197279214859009
            ],
            "scale" : [
                1.0000001192092896,
                1.0000001192092896,
                1
            ],
            "translation" : [
                5.029141902923584e-08,
                0.26358333230018616,
                1.0710209608078003e-07
            ]
        },
        {
            "children" : [
                5
            ],
            "name" : "Bone.007",
            "rotation" : [
                0.5227161645889282,
                -0.019467411562800407,
                -0.011476142331957817,
                0.8522072434425354
            ],
            "translation" : [
                -1.6763806343078613e-08,
                0.3752293586730957,
                -9.42964106798172e-08
            ]
        },
        {
            "children" : [
                6
            ],
            "name" : "Bone.006",
            "rotation" : [
                0.405638724565506,
                -0.09112752974033356,
                -0.18601997196674347,
                0.8902525305747986
            ],
            "scale" : [
                1,
                0.9999999403953552,
                1
            ],
            "translation" : [
                7.565540727227926e-08,
                0.722539484500885,
                1.3969838619232178e-08
            ]
        },
        {
            "children" : [
                7
            ],
            "name" : "Bone.005",
            "rotation" : [
                0.011291459202766418,
                -0.022514723241329193,
                0.22793680429458618,
                0.9733501076698303
            ],
            "scale" : [
                1,
                0.9999999403953552,
                0.9999999403953552
            ],
            "translation" : [
                -7.585185812786222e-10,
                0.9910675287246704,
                -2.9293005354702473e-08
            ]
        },
        {
            "name" : "Bone.014",
            "rotation" : [
                0.40306341648101807,
                -0.0007675223168917,
                -0.0019087569089606404,
                0.9151697754859924
            ],
            "scale" : [
                0.9999999403953552,
                1,
                0.9999999403953552
            ],
            "translation" : [
                5.3551048040390015e-09,
                0.38848593831062317,
                9.348150342702866e-08
            ]
        },
        {
            "children" : [
                9
            ],
            "name" : "Bone.013",
            "rotation" : [
                0.5594317317008972,
                0.006424462888389826,
                0.018827887251973152,
                0.8286378383636475
            ],
            "translation" : [
                1.5832483768463135e-08,
                0.38291215896606445,
                2.2277527023106813e-07
            ]
        },
        {
            "children" : [
                10
            ],
            "name" : "Bone.012",
            "rotation" : [
                0.4825575649738312,
                -0.02669193409383297,
                -0.0788772851228714,
                0.8718968629837036
            ],
            "scale" : [
                1.0000001192092896,
                1,
                1
            ],
            "translation" : [
                -8.614733815193176e-09,
                0.6533766984939575,
                5.0640664994716644e-09
            ]
        },
        {
            "children" : [
                11
            ],
            "name" : "Bone.009",
            "rotation" : [
                -0.007037662435323,
                0.008903251960873604,
                0.06288333237171173,
                0.9979564547538757
            ],
            "scale" : [
                0.9999999403953552,
                0.9999998807907104,
                1
            ],
            "translation" : [
                -7.585185812786222e-10,
                0.9910675287246704,
                -2.9293005354702473e-08
            ]
        },
        {
            "name" : "Bone.017",
            "rotation" : [
                0.21893242001533508,
                0.013188312761485577,
                0.022722654044628143,
                0.9753862619400024
            ],
            "scale" : [
                0.9999998807907104,
                0.9999999403953552,
                0.9999999403953552
            ],
            "translation" : [
                1.1175870895385742e-08,
                0.3772426247596741,
                1.0803341865539551e-07
            ]
        },
        {
            "children" : [
                13
            ],
            "name" : "Bone.016",
            "rotation" : [
                0.6578465104103088,
                -0.01227475143969059,
                -0.05589554086327553,
                0.750974714756012
            ],
            "scale" : [
                1,
                1.0000001192092896,
                1.000000238418579
            ],
            "translation" : [
                -2.7939677238464355e-09,
                0.4097682237625122,
                -7.636845111846924e-08
            ]
        },
        {
            "children" : [
                14
            ],
            "name" : "Bone.015",
            "rotation" : [
                0.46707683801651,
                0.06519831717014313,
                0.09131893515586853,
                0.8770685791969299
            ],
            "scale" : [
                1,
                0.9999999403953552,
                0.9999999403953552
            ],
            "translation" : [
                2.8812792152166367e-09,
                0.6154065132141113,
                -5.122274160385132e-09
            ]
        },
        {
            "children" : [
                15
            ],
            "name" : "Bone.010",
            "rotation" : [
                0.01115287933498621,
                -0.018994346261024475,
                -0.1498042345046997,
                0.9884703159332275
            ],
            "scale" : [
                0.9999998807907104,
                1,
                1
            ],
            "translation" : [
                -7.585185812786222e-10,
                0.9910675287246704,
                -2.9293005354702473e-08
            ]
        },
        {
            "name" : "Bone.020",
            "rotation" : [
                0.40560948848724365,
                -0.04422640800476074,
                0.06548545509576797,
                0.9106243252754211
            ],
            "scale" : [
                1.0000001192092896,
                1,
                1.0000001192092896
            ],
            "translation" : [
                3.725290298461914e-09,
                0.23355334997177124,
                2.1094456315040588e-07
            ]
        },
        {
            "children" : [
                17
            ],
            "name" : "Bone.019",
            "rotation" : [
                0.5250658988952637,
                0.09613296389579773,
                -0.04314659163355827,
                0.8445132970809937
            ],
            "scale" : [
                0.9999998211860657,
                1,
                0.9999999403953552
            ],
            "translation" : [
                1.1175870895385742e-08,
                0.2942267954349518,
                -2.2351741790771484e-08
            ]
        },
        {
            "children" : [
                18
            ],
            "name" : "Bone.018",
            "rotation" : [
                0.3267783522605896,
                0.14685745537281036,
                0.24495485424995422,
                0.9009140729904175
            ],
            "scale" : [
                1,
                0.9999999403953552,
                1
            ],
            "translation" : [
                -1.7695128917694092e-08,
                0.6252971887588501,
                1.1175870895385742e-08
            ]
        },
        {
            "children" : [
                19
            ],
            "name" : "Bone.011",
            "rotation" : [
                0.05784519389271736,
                -0.04913751035928726,
                -0.34875279664993286,
                0.9341364502906799
            ],
            "scale" : [
                1,
                0.9999998807907104,
                0.9999999403953552
            ],
            "translation" : [
                -7.585185812786222e-10,
                0.9910675287246704,
                -2.9293005354702473e-08
            ]
        },
        {
            "children" : [
                4,
                8,
                12,
                16,
                20
            ],
            "name" : "Bone",
            "rotation" : [
                -0.06107849255204201,
                -0.0005050210165791214,
                0.007235146127641201,
                0.9981067180633545
            ],
            "scale" : [
                0.9999998807907104,
                1,
                1
            ]
        },
        {
            "mesh" : 1,
            "name" : "Hand.003",
            "skin" : 0
        },
        {
            "children" : [
                22,
                21
            ],
            "name" : "Armature",
            "translation" : [
                0.050147682428359985,
                0.25628745555877686,
                0.17777802050113678
            ]
        },
        {
            "mesh" : 2,
            "name" : "bawahhand",
            "scale" : [
                0.433781236410141,
                0.04167685657739639,
                0.3233644962310791
            ],
            "translation" : [
                0.03898760676383972,
                0.03236524015665054,
                0.12762179970741272
            ]
        }
    ],
    "materials" : [
        {
            "doubleSided" : true,
            "name" : "sleeve",
            "pbrMetallicRoughness" : {
                "baseColorFactor" : [
                    0.030477263033390045,
                    0.01668281853199005,
                    0.6038170456886292,
                    1
                ],
                "metallicFactor" : 0,
                "roughnessFactor" : 0.5
            }
        },
        {
            "doubleSided" : true,
            "name" : "Material.001",
            "pbrMetallicRoughness" : {
                "baseColorFactor" : [
                    0.9734463095664978,
                    0.41363823413848877,
                    0.21694275736808777,
                    1
                ],
                "metallicFactor" : 0,
                "roughnessFactor" : 0.5
            }
        },
        {
            "doubleSided" : true,
            "name" : "Material",
            "pbrMetallicRoughness" : {
                "baseColorFactor" : [
                    0.5457246899604797,
                    0.33716365694999695,
                    0.2195262312889099,
                    1
                ],
                "metallicFactor" : 0,
                "roughnessFactor" : 0.5
            }
        }
    ],
    "meshes" : [
        {
            "name" : "Mesh",
            "primitives" : [
                {
                    "attributes" : {
                        "POSITION" : 0,
                        "NORMAL" : 1,
                        "COLOR_0" : 2
                    },
                    "indices" : 3,
                    "material" : 0
                }
            ]
        },
        {
            "name" : "Mesh",
            "primitives" : [
                {
                    "attributes" : {
                        "POSITION" : 4,
                        "NORMAL" : 5,
                        "COLOR_0" : 6,
                        "JOINTS_0" : 7,
                        "JOINTS_1" : 8,
                        "JOINTS_2" : 9,
                        "WEIGHTS_2" : 10
                    },
                    "indices" : 11,
                    "material" : 1
                }
            ]
        },
        {
            "name" : "Sphere",
            "primitives" : [
                {
                    "attributes" : {
                        "POSITION" : 13,
                        "NORMAL" : 14,
                        "TANGENT" : 15,
                        "TEXCOORD_0" : 16
                    },
                    "indices" : 17,
                    "material" : 2
                }
            ]
        }
    ],
    "skins" : [
        {
            "inverseBindMatrices" : 12,
            "joints" : [
                21,
                4,
                3,
                2,
                1,
                8,
                7,
                6,
                5,
                12,
                11,
                10,
                9,
                16,
                15,
                14,
                13,
                20,
                19,
                18,
                17
            ],
            "name" : "Armature"
        }
    ],
    "accessors" : [
        {
            "bufferView" : 0,
            "componentType" : 5126,
            "count" : 1024,
            "max" : [
                0.5385527610778809,
                0.18654188513755798,
                0.5618236064910889
            ],
            "min" : [
                -0.48901933431625366,
                -0.2905992865562439,
                -0.253319650888443
            ],
            "type" : "VEC3"
        },
        {
            "bufferView" : 1,
            "componentType" : 5126,
            "count" : 1024,
            "type" : "VEC3"
        },
        {
            "bufferView" : 2,
            "componentType" : 5123,
            "count" : 1024,
            "normalized" : true,
            "type" : "VEC4"
        },
        {
            "bufferView" : 3,
            "componentType" : 5123,
            "count" : 6144,
            "type" : "SCALAR"
        },
        {
            "bufferView" : 4,
            "componentType" : 5126,
            "count" : 7441,
            "max" : [
                0.6939368844032288,
                3.01322603225708,
                0.548930823802948
            ],
            "min" : [
                -0.8582555651664734,
                0.05582419037818909,
                -0.22745603322982788
            ],
            "type" : "VEC3"
        },
        {
            "bufferView" : 5,
            "componentType" : 5126,
            "count" : 7441,
            "type" : "VEC3"
        },
        {
            "bufferView" : 6,
            "componentType" : 5123,
            "count" : 7441,
            "normalized" : true,
            "type" : "VEC4"
        },
        {
            "bufferView" : 7,
            "componentType" : 5121,
            "count" : 7441,
            "type" : "VEC4"
        },
        {
            "bufferView" : 8,
            "componentType" : 5121,
            "count" : 7441,
            "type" : "VEC4"
        },
        {
            "bufferView" : 9,
            "componentType" : 5121,
            "count" : 7441,
            "type" : "VEC4"
        },
        {
            "bufferView" : 10,
            "componentType" : 5126,
            "count" : 7441,
            "type" : "VEC4"
        },
        {
            "bufferView" : 11,
            "componentType" : 5123,
            "count" : 44544,
            "type" : "SCALAR"
        },
        {
            "bufferView" : 12,
            "componentType" : 5126,
            "count" : 21,
            "type" : "MAT4"
        },
        {
            "bufferView" : 13,
            "componentType" : 5126,
            "count" : 559,
            "max" : [
                0.9999997019767761,
                1,
                0.9999993443489075
            ],
            "min" : [
                -0.9999990463256836,
                -1,
                -1
            ],
            "type" : "VEC3"
        },
        {
            "bufferView" : 14,
            "componentType" : 5126,
            "count" : 559,
            "type" : "VEC3"
        },
        {
            "bufferView" : 15,
            "componentType" : 5126,
            "count" : 559,
            "type" : "VEC4"
        },
        {
            "bufferView" : 16,
            "componentType" : 5126,
            "count" : 559,
            "type" : "VEC2"
        },
        {
            "bufferView" : 17,
            "componentType" : 5123,
            "count" : 2880,
            "type" : "SCALAR"
        }
    ],
    "bufferViews" : [
        {
            "buffer" : 0,
            "byteLength" : 12288,
            "byteOffset" : 0,
            "target" : 34962
        },
        {
            "buffer" : 0,
            "byteLength" : 12288,
            "byteOffset" : 12288,
            "target" : 34962
        },
        {
            "buffer" : 0,
            "byteLength" : 8192,
            "byteOffset" : 24576,
            "target" : 34962
        },
        {
            "buffer" : 0,
            "byteLength" : 12288,
            "byteOffset" : 32768,
            "target" : 34963
        },
        {
            "buffer" : 0,
            "byteLength" : 89292,
            "byteOffset" : 45056,
            "target" : 34962
        },
        {
            "buffer" : 0,
            "byteLength" : 89292,
            "byteOffset" : 134348,
            "target" : 34962
        },
        {
            "buffer" : 0,
            "byteLength" : 59528,
            "byteOffset" : 223640,
            "target" : 34962
        },
        {
            "buffer" : 0,
            "byteLength" : 29764,
            "byteOffset" : 283168,
            "target" : 34962
        },
        {
            "buffer" : 0,
            "byteLength" : 29764,
            "byteOffset" : 312932,
            "target" : 34962
        },
        {
            "buffer" : 0,
            "byteLength" : 29764,
            "byteOffset" : 342696,
            "target" : 34962
        },
        {
            "buffer" : 0,
            "byteLength" : 119056,
            "byteOffset" : 372460,
            "target" : 34962
        },
        {
            "buffer" : 0,
            "byteLength" : 89088,
            "byteOffset" : 491516,
            "target" : 34963
        },
        {
            "buffer" : 0,
            "byteLength" : 1344,
            "byteOffset" : 580604
        },
        {
            "buffer" : 0,
            "byteLength" : 6708,
            "byteOffset" : 581948,
            "target" : 34962
        },
        {
            "buffer" : 0,
            "byteLength" : 6708,
            "byteOffset" : 588656,
            "target" : 34962
        },
        {
            "buffer" : 0,
            "byteLength" : 8944,
            "byteOffset" : 595364,
            "target" : 34962
        },
        {
            "buffer" : 0,
            "byteLength" : 4472,
            "byteOffset" : 604308,
            "target" : 34962
        },
        {
            "buffer" : 0,
            "byteLength" : 5760,
            "byteOffset" : 608780,
            "target" : 34963
        }
    ],
    "buffers" : [
        {
            "byteLength" : 614540,
            "uri" : "Ahand.bin"
        }
    ]
}
