{
  "asset": {
    "version": "2.0",
    "generator": "THREE.GLTFExporter r165"
  },
  "scenes": [
    {
      "name": "Scene",
      "nodes": [
        22
      ]
    }
  ],
  "scene": 0,
  "nodes": [
    {
      "matrix": [
        1.4,
        0,
        0,
        0,
        0,
        1,
        0,
        0,
        0,
        0,
        1,
        0,
        0.08626923529277992,
        -0.21048741927839582,
        -0.8956651229713183,
        1
      ],
      "name": "Hand003",
      "extras": {
        "name": "Hand.003"
      },
      "mesh": 0,
      "skin": 0
    },
    {
      "matrix": [
        0.9993579765740328,
        -0.0355564004258581,
        0.0044019498837407816,
        0,
        0.03537222461849188,
        0.99870589460375,
        0.03654559429032687,
        0,
        -0.005695682061914137,
        -0.036366417895666234,
        0.9993222321997178,
        0,
        -5.587935447692871e-8,
        0.8178174495697021,
        1.471489667892456e-7,
        1
      ],
      "name": "Bone002",
      "extras": {
        "name": "Bone.002"
      }
    },
    {
      "matrix": [
        0.9975821226485364,
        0.06386591723944839,
        -0.02739883257310138,
        0,
        -0.06205375123372335,
        0.9961107533760556,
        0.06255062356489967,
        0,
        0.03128712842160088,
        -0.06069919070089595,
        0.99766551803484,
        0,
        -6.51925802230835e-9,
        1.0253510475158691,
        4.0046870708465576e-8,
        1
      ],
      "name": "Bone001",
      "extras": {
        "name": "Bone.001"
      },
      "children": [
        1
      ]
    },
    {
      "matrix": [
        0.9996617327032515,
        -0.026008060014580833,
        -0.000031637132761610545,
        0,
        0.02600805705552729,
        0.99965866548562,
        0.0024279800645773454,
        0,
        -0.000031520717316906336,
        -0.002427981578634825,
        0.9999969327420406,
        0,
        0.04630940780043602,
        0.004005922004580498,
        0.10214206576347351,
        1
      ],
      "name": "Bone",
      "extras": {
        "name": "Bone"
      },
      "children": [
        2
      ]
    },
    {
      "matrix": [
        0.9999240439525292,
        -0.012295980066164135,
        -0.0007720093604693309,
        0,
        0.012319113951001765,
        0.9987002392242075,
        0.04945536696638665,
        0,
        0.00016290375572869972,
        -0.04946112984741695,
        0.998776036068183,
        0,
        7.636845111846924e-8,
        0.6977983713150024,
        -8.568167686462402e-8,
        1
      ],
      "name": "Bone007",
      "extras": {
        "name": "Bone.007"
      }
    },
    {
      "matrix": [
        0.999163394202749,
        0.024415738962325326,
        0.03280101457438565,
        0,
        -0.028910322223870907,
        0.9890963020241216,
        0.1444046357509505,
        0,
        -0.028917621497370222,
        -0.1452321398645584,
        0.9889748620394123,
        0,
        -1.30385160446167e-8,
        0.931514322757721,
        0,
        1
      ],
      "name": "Bone006",
      "extras": {
        "name": "Bone.006"
      },
      "children": [
        4
      ]
    },
    {
      "matrix": [
        0.929730435324383,
        -0.36170318166965537,
        -0.06908084956158309,
        0,
        0.36609181198845964,
        0.8876564832490849,
        0.27936143852183754,
        0,
        -0.039725850933517104,
        -0.2850207205133084,
        0.9576976714847792,
        0,
        1.1350493878126144e-8,
        1.7679111957550049,
        7.450580596923828e-9,
        1
      ],
      "name": "Bone005",
      "extras": {
        "name": "Bone.005"
      },
      "children": [
        5
      ]
    },
    {
      "matrix": [
        -0.905983245139962,
        -0.42135759460650174,
        -0.04066704850661785,
        0,
        0.42255068424198955,
        -0.9059347051617066,
        -0.02708266148212776,
        0,
        -0.025430181176865057,
        -0.04172028680347041,
        0.998805648615171,
        0,
        -9.778887033462524e-9,
        1.831375241279602,
        2.0489096641540527e-8,
        1
      ],
      "name": "Bone004",
      "extras": {
        "name": "Bone.004"
      },
      "children": [
        6
      ]
    },
    {
      "matrix": [
        0.9999706266448947,
        -0.007656737836725372,
        -0.000031738030268054244,
        0,
        0.007634426153965145,
        0.9973562644674373,
        -0.0722647741159003,
        0,
        0.000584966588410025,
        0.07226241346230519,
        0.9973854830126591,
        0,
        -4.470348358154297e-8,
        0.8686019778251648,
        -1.1920928955078125e-7,
        1
      ],
      "name": "Bone015",
      "extras": {
        "name": "Bone.015"
      }
    },
    {
      "matrix": [
        0.9980412540298489,
        0.06118440098048176,
        0.01304316898230273,
        0,
        -0.06250531404108882,
        0.9666142812534713,
        0.2484953032367321,
        0,
        0.0025963225545916884,
        -0.248823801792437,
        0.9685451642347287,
        0,
        -7.450580596923828e-9,
        1.1297327280044556,
        0,
        1
      ],
      "name": "Bone014",
      "extras": {
        "name": "Bone.014"
      },
      "children": [
        8
      ]
    },
    {
      "matrix": [
        0.9558031023915426,
        0.29395325912294684,
        0.005649066302121651,
        0,
        -0.29339524245361875,
        0.9548759154601253,
        -0.046167707984885765,
        0,
        -0.018965299913329552,
        0.04246981664381158,
        0.9989175513880404,
        0,
        -4.470348358154297e-8,
        1.5902810096740723,
        -5.21540641784668e-8,
        1
      ],
      "name": "Bone013",
      "extras": {
        "name": "Bone.013"
      },
      "children": [
        9
      ]
    },
    {
      "matrix": [
        -0.8353116701479246,
        0.32727780779913207,
        -0.4417434428865087,
        0,
        -0.38575305951152644,
        -0.9214152435233732,
        0.046781161701408974,
        0,
        -0.3917199218928533,
        0.20948138517651665,
        0.8959201026635143,
        0,
        -9.778887033462524e-9,
        1.831375241279602,
        2.0489096641540527e-8,
        1
      ],
      "name": "Bone008",
      "extras": {
        "name": "Bone.008"
      },
      "children": [
        10
      ]
    },
    {
      "matrix": [
        0.9981170476985075,
        0.006185271575057523,
        0.06102346325666763,
        0,
        -0.008137914834876104,
        0.9994611856982974,
        0.031801745813294396,
        0,
        -0.06079388050752908,
        -0.032238468389746186,
        0.9976295831720667,
        0,
        -8.940696716308594e-8,
        0.6541665196418762,
        -3.026798367500305e-7,
        1
      ],
      "name": "Bone018",
      "extras": {
        "name": "Bone.018"
      }
    },
    {
      "matrix": [
        0.9988053793021946,
        0.0481859880127146,
        0.008119420673377425,
        0,
        -0.04828354772599894,
        0.9476335678677288,
        0.31568846619883606,
        0,
        0.007517525513185725,
        -0.3157033914268402,
        0.9488281520522664,
        0,
        1.1175870895385742e-8,
        0.9165719151496887,
        -3.3527612686157227e-8,
        1
      ],
      "name": "Bone017",
      "extras": {
        "name": "Bone.017"
      },
      "children": [
        12
      ]
    },
    {
      "matrix": [
        0.8117523296992388,
        0.582095813685483,
        0.04714239809126559,
        0,
        -0.5703760547267963,
        0.80756115978361,
        -0.15005344365812726,
        0,
        -0.1254158479690287,
        0.09491733509588579,
        0.9875531421724961,
        0,
        -3.948807716369629e-7,
        1.6158236265182495,
        -1.341104507446289e-7,
        1
      ],
      "name": "Bone016",
      "extras": {
        "name": "Bone.016"
      },
      "children": [
        13
      ]
    },
    {
      "matrix": [
        -0.662684893364741,
        0.6854885981257348,
        -0.3015870628198207,
        0,
        -0.7401640351253163,
        -0.6608259754768971,
        0.12436492734144448,
        0,
        -0.11404576592049348,
        0.30563849689105216,
        0.9452929059000932,
        0,
        -9.778887033462524e-9,
        1.831375241279602,
        2.0489096641540527e-8,
        1
      ],
      "name": "Bone009",
      "extras": {
        "name": "Bone.009"
      },
      "children": [
        14
      ]
    },
    {
      "matrix": [
        0.760367485404068,
        -0.6492701558920937,
        0.017023795955842184,
        0,
        0.6253174438451289,
        0.7247284276294237,
        -0.2893898154193567,
        0,
        0.17555454880504193,
        0.230687892166307,
        0.957059925124019,
        0,
        -2.086162567138672e-7,
        0.7045709490776062,
        3.5762786865234375e-7,
        1
      ],
      "name": "Bone012",
      "extras": {
        "name": "Bone.012"
      }
    },
    {
      "matrix": [
        0.8168451006507924,
        -0.5269693042767083,
        -0.23466408399797592,
        0,
        0.5663675237140395,
        0.6554101562663663,
        0.49966531244844664,
        0,
        -0.10950706064336459,
        -0.5410552911748522,
        0.8338268943730431,
        0,
        -4.284083843231201e-8,
        1.457951307296753,
        -7.450580596923828e-8,
        1
      ],
      "name": "Bone011",
      "extras": {
        "name": "Bone.011"
      },
      "children": [
        16
      ]
    },
    {
      "matrix": [
        -0.28591343724921836,
        -0.9581466473525229,
        -0.014454856557786546,
        0,
        0.8956021397832207,
        -0.2725540890334183,
        0.35158428298547123,
        0,
        -0.34080888671370424,
        0.08757683264368,
        0.936044662857399,
        0,
        -9.778887033462524e-9,
        1.831375241279602,
        2.0489096641540527e-8,
        1
      ],
      "name": "Bone010",
      "extras": {
        "name": "Bone.010"
      },
      "children": [
        17
      ]
    },
    {
      "matrix": [
        -0.9879851816121701,
        -0.006701227447065946,
        -0.1544024332872147,
        0,
        -0.03509577631563024,
        -0.9632303336315691,
        0.26637489844534784,
        0,
        -0.15051018563431123,
        0.26859339621291095,
        0.9514223611769862,
        0,
        0.0446573942899704,
        0.0005195802077651024,
        0.060950323939323425,
        1
      ],
      "name": "Bone003",
      "extras": {
        "name": "Bone.003"
      },
      "children": [
        7,
        11,
        15,
        18
      ]
    },
    {
      "matrix": [
        0.4085857759557823,
        0.017936306805146643,
        -0.03834762038177738,
        0,
        -0.00877270251480299,
        0.39987924642320477,
        0.09356396430591546,
        0,
        0.04141606612144292,
        -0.09224675273327479,
        0.3981329037490486,
        0,
        -0.05983598530292511,
        1.9334256649017334,
        -0.02075989730656147,
        1
      ],
      "name": "Armature",
      "extras": {
        "name": "Armature"
      },
      "children": [
        0,
        3,
        19
      ]
    },
    {
      "matrix": [
        0.5696395635604858,
        0,
        0,
        0,
        0,
        0.20599350333213806,
        0,
        0,
        0,
        0,
        0.38555172085762024,
        0,
        0.021586447954177856,
        0.2875502266460066,
        0.16152697801589966,
        1
      ],
      "name": "Cylinder",
      "extras": {
        "name": "Cylinder"
      },
      "mesh": 1
    },
    {
      "name": "Ahand.glb",
      "children": [
        20,
        21
      ]
    }
  ],
  "bufferViews": [
    {
      "buffer": 0,
      "byteOffset": 0,
      "byteLength": 5436,
      "target": 34962,
      "byteStride": 12
    },
    {
      "buffer": 0,
      "byteOffset": 5436,
      "byteLength": 5436,
      "target": 34962,
      "byteStride": 12
    },
    {
      "buffer": 0,
      "byteOffset": 10872,
      "byteLength": 3624,
      "target": 34962,
      "byteStride": 8
    },
    {
      "buffer": 0,
      "byteOffset": 14496,
      "byteLength": 1812,
      "target": 34962,
      "byteStride": 4
    },
    {
      "buffer": 0,
      "byteOffset": 16308,
      "byteLength": 7248,
      "target": 34962,
      "byteStride": 16
    },
    {
      "buffer": 0,
      "byteOffset": 23556,
      "byteLength": 5376,
      "target": 34963
    },
    {
      "buffer": 0,
      "byteOffset": 28932,
      "byteLength": 1560,
      "target": 34962,
      "byteStride": 12
    },
    {
      "buffer": 0,
      "byteOffset": 30492,
      "byteLength": 1560,
      "target": 34962,
      "byteStride": 12
    },
    {
      "buffer": 0,
      "byteOffset": 32052,
      "byteLength": 1040,
      "target": 34962,
      "byteStride": 8
    },
    {
      "buffer": 0,
      "byteOffset": 33092,
      "byteLength": 744,
      "target": 34963
    },
    {
      "buffer": 0,
      "byteOffset": 33836,
      "byteLength": 1216
    }
  ],
  "buffers": [
    {
      "byteLength": 35052,
      "uri": "data:application/octet-stream;base64,"
    }
  ],
  "accessors": [
    {
      "bufferView": 0,
      "componentType": 5126,
      "count": 453,
      "max": [
        0.7071672677993774,
        3.0799360275268555,
        0.564679741859436
      ],
      "min": [
        -0.8837856650352478,
        0.2243485003709793,
        -0.24480916559696198
      ],
      "type": "VEC3"
    },
    {
      "bufferView": 1,
      "componentType": 5126,
      "count": 453,
      "max": [
        0.9977336525917053,
        0.9774817824363708,
        0.9986895322799683
      ],
      "min": [
        -0.99967360496521,
        -0.674515962600708,
        -0.9996128678321838
      ],
      "type": "VEC3"
    },
    {
      "bufferView": 2,
      "componentType": 5123,
      "count": 453,
      "max": [
        65535,
        65535,
        65535,
        65535
      ],
      "min": [
        65535,
        65535,
        65535,
        65535
      ],
      "type": "VEC4",
      "normalized": true
    },
    {
      "bufferView": 3,
      "componentType": 5121,
      "count": 453,
      "max": [
        18,
        18,
        18,
        18
      ],
      "min": [
        0,
        0,
        0,
        0
      ],
      "type": "VEC4"
    },
    {
      "bufferView": 4,
      "componentType": 5126,
      "count": 453,
      "max": [
        1,
        0.49875685572624207,
        0.288816899061203,
        0.24938204884529114
      ],
      "min": [
        0.25082528591156006,
        0,
        0,
        0
      ],
      "type": "VEC4"
    },
    {
      "bufferView": 5,
      "componentType": 5123,
      "count": 2688,
      "max": [
        452
      ],
      "min": [
        0
      ],
      "type": "SCALAR"
    },
    {
      "bufferView": 6,
      "componentType": 5126,
      "count": 130,
      "max": [
        1,
        1,
        1
      ],
      "min": [
        -1,
        -1,
        -1
      ],
      "type": "VEC3"
    },
    {
      "bufferView": 7,
      "componentType": 5126,
      "count": 130,
      "max": [
        0.7278876900672913,
        0.6856964826583862,
        0.7278876900672913
      ],
      "min": [
        -0.7278876900672913,
        -0.685696542263031,
        -0.7278876900672913
      ],
      "type": "VEC3"
    },
    {
      "bufferView": 8,
      "componentType": 5126,
      "count": 130,
      "max": [
        1,
        0.9900000095367432
      ],
      "min": [
        0,
        0
      ],
      "type": "VEC2"
    },
    {
      "bufferView": 9,
      "componentType": 5123,
      "count": 372,
      "max": [
        129
      ],
      "min": [
        0
      ],
      "type": "SCALAR"
    },
    {
      "bufferView": 10,
      "componentType": 5126,
      "count": 19,
      "max": [
        2.426879405975342,
        1.7603838443756104,
        1.745666265487671,
        0,
        2.3392794132232666,
        2.432966470718384,
        0.202668234705925,
        0,
        0.02167254500091076,
        1.5693153142929077,
        2.4280431270599365,
        0,
        2.0385055541992188,
        4.692044258117676,
        2.0166001319885254,
        1
      ],
      "min": [
        -2.429927110671997,
        -2.2354965209960938,
        -0.18027269840240479,
        0,
        -1.6732633113861084,
        -2.432088851928711,
        -1.0601474046707153,
        0,
        -1.7445534467697144,
        -0.21914048492908478,
        1.5761862993240356,
        0,
        -2.7310502529144287,
        -6.289098739624023,
        -0.32226046919822693,
        1
      ],
      "type": "MAT4"
    }
  ],
  "materials": [
    {
      "pbrMetallicRoughness": {
        "baseColorFactor": [
          0.9734452903978066,
          0.41254261347374327,
          0.21586050010324415,
          1
        ],
        "metallicFactor": 0,
        "roughnessFactor": 0.5
      },
      "doubleSided": true,
      "name": "Material.001"
    },
    {
      "pbrMetallicRoughness": {
        "baseColorFactor": [
          0.008568125615105716,
          0.030713443727452196,
          0.407240211891531,
          1
        ],
        "metallicFactor": 0,
        "roughnessFactor": 0.5
      },
      "doubleSided": true,
      "name": "Material.002"
    }
  ],
  "meshes": [
    {
      "primitives": [
        {
          "mode": 4,
          "attributes": {
            "POSITION": 0,
            "NORMAL": 1,
            "COLOR_0": 2,
            "JOINTS_0": 3,
            "WEIGHTS_0": 4
          },
          "indices": 5,
          "material": 0
        }
      ]
    },
    {
      "primitives": [
        {
          "mode": 4,
          "attributes": {
            "POSITION": 6,
            "NORMAL": 7,
            "TEXCOORD_0": 8
          },
          "indices": 9,
          "material": 1
        }
      ]
    }
  ],
  "skins": [
    {
      "inverseBindMatrices": 10,
      "joints": [
        3,
        2,
        1,
        19,
        7,
        6,
        5,
        4,
        11,
        10,
        9,
        8,
        15,
        14,
        13,
        12,
        18,
        17,
        16
      ],
      "skeleton": 3
    }
  ]
}