{
    "asset" : {
        "generator" : "Khronos glTF Blender I/O v3.3.32",
        "version" : "2.0"
    },
    "scene" : 0,
    "scenes" : [
        {
            "name" : "Scene",
            "nodes" : [
                24
            ]
        }
    ],
    "nodes" : [
        {
            "name" : "Bone.004",
            "rotation" : [
                -0.008039180189371109,
                0.0179922915995121,
                -0.11139541119337082,
                0.9935808777809143
            ],
            "scale" : [
                0.9999998807907104,
                1,
                0.9999999403953552
            ],
            "translation" : [
                4.470348358154297e-08,
                0.21952910721302032,
                -4.842877388000488e-08
            ]
        },
        {
            "children" : [
                0
            ],
            "name" : "Bone.003",
            "rotation" : [
                -0.018469493836164474,
                0.021079231053590775,
                -0.28328022360801697,
                0.9586275815963745
            ],
            "scale" : [
                1,
                0.9999999403953552,
                1
            ],
            "translation" : [
                6.658956408500671e-08,
                0.3053777515888214,
                4.470348358154297e-08
            ]
        },
        {
            "children" : [
                1
            ],
            "name" : "Bone.002",
            "rotation" : [
                -0.09012158215045929,
                -0.035426534712314606,
                -0.41153988242149353,
                0.9062328934669495
            ],
            "scale" : [
                1.0000001192092896,
                1,
                1.0000001192092896
            ],
            "translation" : [
                7.450580596923828e-08,
                0.5667985081672668,
                4.470348358154297e-08
            ]
        },
        {
            "children" : [
                2
            ],
            "name" : "Bone.001",
            "rotation" : [
                0.24700574576854706,
                -0.003009204054251313,
                0.6831334233283997,
                0.687246561050415
            ],
            "scale" : [
                0.9999999403953552,
                1,
                0.9999999403953552
            ],
            "translation" : [
                -7.585185812786222e-10,
                0.9910675287246704,
                -2.9293005354702473e-08
            ]
        },
        {
            "name" : "Bone.008",
            "rotation" : [
                0.02087871916592121,
                0.0013842741027474403,
                -0.00997062586247921,
                0.9997313618659973
            ],
            "scale" : [
                1,
                0.9999998807907104,
                1
            ],
            "translation" : [
                1.5366822481155396e-08,
                0.2635837197303772,
                -4.7264620661735535e-08
            ]
        },
        {
            "children" : [
                4
            ],
            "name" : "Bone.007",
            "rotation" : [
                0.0850667655467987,
                0.0006289850571192801,
                -0.013294197618961334,
                0.9962863922119141
            ],
            "translation" : [
                1.955777406692505e-08,
                0.3752293586730957,
                1.5599653124809265e-08
            ]
        },
        {
            "children" : [
                5
            ],
            "name" : "Bone.006",
            "rotation" : [
                0.14939825236797333,
                -0.01625797152519226,
                -0.20516356825828552,
                0.9671213626861572
            ],
            "scale" : [
                0.9999999403953552,
                0.9999998807907104,
                0.9999999403953552
            ],
            "translation" : [
                1.9819708541035652e-08,
                0.7225391864776611,
                -3.725290298461914e-09
            ]
        },
        {
            "children" : [
                6
            ],
            "name" : "Bone.005",
            "rotation" : [
                0.007826520130038261,
                -0.038064487278461456,
                0.24704644083976746,
                0.9682241082191467
            ],
            "scale" : [
                1,
                1,
                0.9999999403953552
            ],
            "translation" : [
                -7.585185812786222e-10,
                0.9910675287246704,
                -2.9293005354702473e-08
            ]
        },
        {
            "name" : "Bone.014",
            "rotation" : [
                0.009457155130803585,
                -0.00010898700566031039,
                -0.004628472495824099,
                0.9999445676803589
            ],
            "scale" : [
                0.9999999403953552,
                1,
                1
            ],
            "translation" : [
                -2.270098775625229e-09,
                0.3884859085083008,
                7.392372936010361e-08
            ]
        },
        {
            "children" : [
                8
            ],
            "name" : "Bone.013",
            "rotation" : [
                0.054980672895908356,
                0.000286560389213264,
                0.018739309161901474,
                0.9983115196228027
            ],
            "scale" : [
                0.9999999403953552,
                0.9999999403953552,
                1
            ],
            "translation" : [
                -9.837094694375992e-09,
                0.38291218876838684,
                -1.7171259969472885e-08
            ]
        },
        {
            "children" : [
                9
            ],
            "name" : "Bone.012",
            "rotation" : [
                0.18335279822349548,
                -0.007873175665736198,
                -0.08973560482263565,
                0.978911280632019
            ],
            "scale" : [
                1,
                0.9999999403953552,
                1
            ],
            "translation" : [
                9.778887033462524e-09,
                0.6533767580986023,
                -1.583066477905959e-08
            ]
        },
        {
            "children" : [
                10
            ],
            "name" : "Bone.009",
            "rotation" : [
                -0.007729428354650736,
                0.001490738708525896,
                0.06955233961343765,
                0.9975472688674927
            ],
            "scale" : [
                0.9999999403953552,
                0.9999999403953552,
                1
            ],
            "translation" : [
                -7.585185812786222e-10,
                0.9910675287246704,
                -2.9293005354702473e-08
            ]
        },
        {
            "name" : "Bone.017",
            "rotation" : [
                0.053168561309576035,
                0.011269268579781055,
                -0.011846024543046951,
                0.9984517097473145
            ],
            "scale" : [
                1,
                0.9999999403953552,
                1
            ],
            "translation" : [
                -4.6566128730773926e-09,
                0.37724319100379944,
                -4.0978193283081055e-08
            ]
        },
        {
            "children" : [
                12
            ],
            "name" : "Bone.016",
            "rotation" : [
                0.01355774886906147,
                -0.00188331282697618,
                -0.0062713841907680035,
                0.999886691570282
            ],
            "scale" : [
                1,
                1.0000001192092896,
                1.0000001192092896
            ],
            "translation" : [
                -4.889443516731262e-08,
                0.4097681939601898,
                5.4016709327697754e-08
            ]
        },
        {
            "children" : [
                13
            ],
            "name" : "Bone.015",
            "rotation" : [
                0.18175023794174194,
                0.006937023717910051,
                0.11501326411962509,
                0.9765709042549133
            ],
            "scale" : [
                0.9999999403953552,
                0.9999999403953552,
                0.9999999403953552
            ],
            "translation" : [
                4.321918822824955e-09,
                0.6154063940048218,
                -1.909211277961731e-08
            ]
        },
        {
            "children" : [
                14
            ],
            "name" : "Bone.010",
            "rotation" : [
                0.007403230294585228,
                -0.0030356068164110184,
                -0.16437996923923492,
                0.9863646626472473
            ],
            "scale" : [
                0.9999999403953552,
                1,
                0.9999998807907104
            ],
            "translation" : [
                -7.585185812786222e-10,
                0.9910675287246704,
                -2.9293005354702473e-08
            ]
        },
        {
            "name" : "Bone.020",
            "rotation" : [
                -0.04716704413294792,
                -0.014861525036394596,
                -0.010470337234437466,
                0.9987215995788574
            ],
            "scale" : [
                0.9999999403953552,
                0.9999999403953552,
                0.9999999403953552
            ],
            "translation" : [
                -9.499490261077881e-08,
                0.23355339467525482,
                -4.470348358154297e-08
            ]
        },
        {
            "children" : [
                16
            ],
            "name" : "Bone.019",
            "rotation" : [
                0.026167912408709526,
                0.012558621354401112,
                0.005017826333642006,
                0.9995661973953247
            ],
            "scale" : [
                0.9999999403953552,
                0.9999998211860657,
                1
            ],
            "translation" : [
                7.450580596923828e-09,
                0.29422688484191895,
                -4.470348358154297e-08
            ]
        },
        {
            "children" : [
                17
            ],
            "name" : "Bone.018",
            "rotation" : [
                0.2022581547498703,
                0.033663101494312286,
                0.2768239974975586,
                0.9387902617454529
            ],
            "scale" : [
                0.9999999403953552,
                1,
                0.9999999403953552
            ],
            "translation" : [
                -9.592622518539429e-08,
                0.6252970695495605,
                5.587935447692871e-09
            ]
        },
        {
            "children" : [
                18
            ],
            "name" : "Bone.011",
            "rotation" : [
                0.04205518588423729,
                -0.015600967220962048,
                -0.38255852460861206,
                0.9228417873382568
            ],
            "scale" : [
                1,
                0.9999999403953552,
                1
            ],
            "translation" : [
                -7.585185812786222e-10,
                0.9910675287246704,
                -2.9293005354702473e-08
            ]
        },
        {
            "children" : [
                3,
                7,
                11,
                15,
                19
            ],
            "name" : "Bone",
            "rotation" : [
                -0.06107849255204201,
                -0.0005050210165791214,
                0.007235146127641201,
                0.9981067180633545
            ],
            "scale" : [
                0.9999998807907104,
                1,
                1
            ]
        },
        {
            "mesh" : 0,
            "name" : "bawahhand",
            "skin" : 0
        },
        {
            "mesh" : 1,
            "name" : "Hand.003",
            "skin" : 0
        },
        {
            "mesh" : 2,
            "name" : "sleeve",
            "skin" : 0
        },
        {
            "children" : [
                21,
                22,
                23,
                20
            ],
            "name" : "Armature",
            "translation" : [
                0.050147682428359985,
                0.25628745555877686,
                0.17777802050113678
            ]
        }
    ],
    "materials" : [
        {
            "doubleSided" : true,
            "name" : "Material",
            "pbrMetallicRoughness" : {
                "baseColorFactor" : [
                    0.5457246899604797,
                    0.33716365694999695,
                    0.2195262312889099,
                    1
                ],
                "metallicFactor" : 0,
                "roughnessFactor" : 0.5
            }
        },
        {
            "doubleSided" : true,
            "name" : "Material.001",
            "pbrMetallicRoughness" : {
                "baseColorFactor" : [
                    0.9734463095664978,
                    0.41363823413848877,
                    0.21694275736808777,
                    1
                ],
                "metallicFactor" : 0,
                "roughnessFactor" : 0.5
            }
        },
        {
            "doubleSided" : true,
            "name" : "sleeve",
            "pbrMetallicRoughness" : {
                "baseColorFactor" : [
                    0.030477263033390045,
                    0.01668281853199005,
                    0.6038170456886292,
                    1
                ],
                "metallicFactor" : 0,
                "roughnessFactor" : 0.5
            }
        }
    ],
    "meshes" : [
        {
            "name" : "Sphere",
            "primitives" : [
                {
                    "attributes" : {
                        "POSITION" : 0,
                        "NORMAL" : 1,
                        "TEXCOORD_0" : 2,
                        "JOINTS_0" : 3,
                        "WEIGHTS_0" : 4
                    },
                    "indices" : 5,
                    "material" : 0
                }
            ]
        },
        {
            "name" : "Mesh",
            "primitives" : [
                {
                    "attributes" : {
                        "POSITION" : 7,
                        "NORMAL" : 8,
                        "COLOR_0" : 9,
                        "JOINTS_0" : 10,
                        "WEIGHTS_0" : 11
                    },
                    "indices" : 12,
                    "material" : 1
                }
            ]
        },
        {
            "name" : "Mesh",
            "primitives" : [
                {
                    "attributes" : {
                        "POSITION" : 13,
                        "NORMAL" : 14,
                        "COLOR_0" : 15,
                        "JOINTS_0" : 16,
                        "WEIGHTS_0" : 17
                    },
                    "indices" : 18,
                    "material" : 2
                }
            ]
        }
    ],
    "skins" : [
        {
            "inverseBindMatrices" : 6,
            "joints" : [
                20,
                3,
                2,
                1,
                0,
                7,
                6,
                5,
                4,
                11,
                10,
                9,
                8,
                15,
                14,
                13,
                12,
                19,
                18,
                17,
                16
            ],
            "name" : "Armature"
        }
    ],
    "accessors" : [
        {
            "bufferView" : 0,
            "componentType" : 5126,
            "count" : 559,
            "max" : [
                0.47276872396469116,
                0.07404209673404694,
                0.4509860873222351
            ],
            "min" : [
                -0.39479321241378784,
                -0.00931161642074585,
                -0.19574269652366638
            ],
            "type" : "VEC3"
        },
        {
            "bufferView" : 1,
            "componentType" : 5126,
            "count" : 559,
            "type" : "VEC3"
        },
        {
            "bufferView" : 2,
            "componentType" : 5126,
            "count" : 559,
            "type" : "VEC2"
        },
        {
            "bufferView" : 3,
            "componentType" : 5121,
            "count" : 559,
            "type" : "VEC4"
        },
        {
            "bufferView" : 4,
            "componentType" : 5126,
            "count" : 559,
            "type" : "VEC4"
        },
        {
            "bufferView" : 5,
            "componentType" : 5123,
            "count" : 2880,
            "type" : "SCALAR"
        },
        {
            "bufferView" : 6,
            "componentType" : 5126,
            "count" : 21,
            "type" : "MAT4"
        },
        {
            "bufferView" : 7,
            "componentType" : 5126,
            "count" : 7441,
            "max" : [
                0.6939368844032288,
                3.01322603225708,
                0.548930823802948
            ],
            "min" : [
                -0.8582555651664734,
                0.05582419037818909,
                -0.22745603322982788
            ],
            "type" : "VEC3"
        },
        {
            "bufferView" : 8,
            "componentType" : 5126,
            "count" : 7441,
            "type" : "VEC3"
        },
        {
            "bufferView" : 9,
            "componentType" : 5123,
            "count" : 7441,
            "normalized" : true,
            "type" : "VEC4"
        },
        {
            "bufferView" : 10,
            "componentType" : 5121,
            "count" : 7441,
            "type" : "VEC4"
        },
        {
            "bufferView" : 11,
            "componentType" : 5126,
            "count" : 7441,
            "type" : "VEC4"
        },
        {
            "bufferView" : 12,
            "componentType" : 5123,
            "count" : 44544,
            "type" : "SCALAR"
        },
        {
            "bufferView" : 13,
            "componentType" : 5126,
            "count" : 1024,
            "max" : [
                0.5428508520126343,
                0.4677901864051819,
                0.5618236064910889
            ],
            "min" : [
                -0.48472124338150024,
                -0.009350896812975407,
                -0.2533196210861206
            ],
            "type" : "VEC3"
        },
        {
            "bufferView" : 14,
            "componentType" : 5126,
            "count" : 1024,
            "type" : "VEC3"
        },
        {
            "bufferView" : 15,
            "componentType" : 5123,
            "count" : 1024,
            "normalized" : true,
            "type" : "VEC4"
        },
        {
            "bufferView" : 16,
            "componentType" : 5121,
            "count" : 1024,
            "type" : "VEC4"
        },
        {
            "bufferView" : 17,
            "componentType" : 5126,
            "count" : 1024,
            "type" : "VEC4"
        },
        {
            "bufferView" : 18,
            "componentType" : 5123,
            "count" : 6144,
            "type" : "SCALAR"
        }
    ],
    "bufferViews" : [
        {
            "buffer" : 0,
            "byteLength" : 6708,
            "byteOffset" : 0,
            "target" : 34962
        },
        {
            "buffer" : 0,
            "byteLength" : 6708,
            "byteOffset" : 6708,
            "target" : 34962
        },
        {
            "buffer" : 0,
            "byteLength" : 4472,
            "byteOffset" : 13416,
            "target" : 34962
        },
        {
            "buffer" : 0,
            "byteLength" : 2236,
            "byteOffset" : 17888,
            "target" : 34962
        },
        {
            "buffer" : 0,
            "byteLength" : 8944,
            "byteOffset" : 20124,
            "target" : 34962
        },
        {
            "buffer" : 0,
            "byteLength" : 5760,
            "byteOffset" : 29068,
            "target" : 34963
        },
        {
            "buffer" : 0,
            "byteLength" : 1344,
            "byteOffset" : 34828
        },
        {
            "buffer" : 0,
            "byteLength" : 89292,
            "byteOffset" : 36172,
            "target" : 34962
        },
        {
            "buffer" : 0,
            "byteLength" : 89292,
            "byteOffset" : 125464,
            "target" : 34962
        },
        {
            "buffer" : 0,
            "byteLength" : 59528,
            "byteOffset" : 214756,
            "target" : 34962
        },
        {
            "buffer" : 0,
            "byteLength" : 29764,
            "byteOffset" : 274284,
            "target" : 34962
        },
        {
            "buffer" : 0,
            "byteLength" : 119056,
            "byteOffset" : 304048,
            "target" : 34962
        },
        {
            "buffer" : 0,
            "byteLength" : 89088,
            "byteOffset" : 423104,
            "target" : 34963
        },
        {
            "buffer" : 0,
            "byteLength" : 12288,
            "byteOffset" : 512192,
            "target" : 34962
        },
        {
            "buffer" : 0,
            "byteLength" : 12288,
            "byteOffset" : 524480,
            "target" : 34962
        },
        {
            "buffer" : 0,
            "byteLength" : 8192,
            "byteOffset" : 536768,
            "target" : 34962
        },
        {
            "buffer" : 0,
            "byteLength" : 4096,
            "byteOffset" : 544960,
            "target" : 34962
        },
        {
            "buffer" : 0,
            "byteLength" : 16384,
            "byteOffset" : 549056,
            "target" : 34962
        },
        {
            "buffer" : 0,
            "byteLength" : 12288,
            "byteOffset" : 565440,
            "target" : 34963
        }
    ],
    "buffers" : [
        {
            "byteLength" : 577728,
            "uri" : "Resthand.bin"
        }
    ]
}
